<!--?xml version="1.0" standalone="no"?-->
              <svg id="sw-js-blob-svg" viewBox="0 0 100 100" xmlns="http://www.w3.org/2000/svg" version="1.1">
                    <defs> 
                        <linearGradient id="sw-gradient" x1="0" x2="1" y1="1" y2="0">
                            <stop id="stop1" stop-color="rgba(255, 215, 0, 1)" offset="0%"></stop>
                            <stop id="stop2" stop-color="rgba(255, 215, 0, 1)" offset="100%"></stop>
                        </linearGradient>
                    </defs>
                <path fill="url(#sw-gradient)" d="M18.7,-26.3C25.4,-21,32.5,-16.9,36,-10.6C39.6,-4.3,39.4,4.2,37.2,12.4C35,20.6,30.7,28.5,24.1,32C17.6,35.6,8.8,34.9,0.2,34.5C-8.3,34.2,-16.7,34.3,-23.6,30.9C-30.6,27.5,-36.2,20.5,-36.8,13.2C-37.3,6,-32.9,-1.7,-30.2,-9.7C-27.5,-17.8,-26.5,-26.4,-21.7,-32.3C-16.9,-38.2,-8.5,-41.3,-1.2,-39.7C6.1,-38,12.1,-31.5,18.7,-26.3Z" width="100%" height="100%" transform="translate(50 50)" stroke-width="0" style="transition: all 0.3s ease 0s;" stroke="url(#sw-gradient)"></path>
              </svg>